<svg xmlns="http://www.w3.org/2000/svg" version="1.1" xmlns:xlink="http://www.w3.org/1999/xlink" xmlns:svgjs="http://svgjs.dev/svgjs" viewBox="0 0 2400 800"><defs><linearGradient x1="50%" y1="0%" x2="50%" y2="100%" id="sssurf-grad"><stop stop-color="hsl(208, 77%, 50%)" stop-opacity="1" offset="0%"></stop><stop stop-color="hsl(208, 74%, 93%)" stop-opacity="1" offset="100%"></stop></linearGradient></defs><g fill="url(#sssurf-grad)" transform="matrix(1,0,0,1,10.8282470703125,224.511634349823)"><path d="M-10,10C33.75,10.625,114.58333333333334,16.333333333333332,200,13C285.41666666666663,9.666666666666668,316.66666666666663,-12.041666666666666,400,-6C483.33333333333337,0.041666666666666075,516.6666666666666,46.791666666666664,600,42C683.3333333333334,37.208333333333336,716.6666666666666,-30.458333333333332,800,-29C883.3333333333334,-27.541666666666668,916.6666666666666,44.833333333333336,1000,49C1083.3333333333333,53.166666666666664,1116.6666666666667,-9.833333333333334,1200,-9C1283.3333333333333,-8.166666666666666,1316.6666666666667,50.916666666666664,1400,53C1483.3333333333333,55.083333333333336,1516.6666666666667,3.5,1600,1C1683.3333333333333,-1.5,1716.6666666666667,44.541666666666664,1800,41C1883.3333333333333,37.458333333333336,1916.6666666666667,-16.625,2000,-16C2083.3333333333335,-15.375,2118.75,38.583333333333336,2200,44C2281.25,49.416666666666664,2296.25,-64.16666666666667,2390,10C2483.75,84.16666666666667,3252.0833333333335,214.58333333333331,2650,400C2047.9166666666665,585.4166666666667,156.25,795.8333333333334,-500,900" transform="matrix(1,0,0,1,0,35)" opacity="0.05"></path><path d="M-10,10C33.75,10.625,114.58333333333334,16.333333333333332,200,13C285.41666666666663,9.666666666666668,316.66666666666663,-12.041666666666666,400,-6C483.33333333333337,0.041666666666666075,516.6666666666666,46.791666666666664,600,42C683.3333333333334,37.208333333333336,716.6666666666666,-30.458333333333332,800,-29C883.3333333333334,-27.541666666666668,916.6666666666666,44.833333333333336,1000,49C1083.3333333333333,53.166666666666664,1116.6666666666667,-9.833333333333334,1200,-9C1283.3333333333333,-8.166666666666666,1316.6666666666667,50.916666666666664,1400,53C1483.3333333333333,55.083333333333336,1516.6666666666667,3.5,1600,1C1683.3333333333333,-1.5,1716.6666666666667,44.541666666666664,1800,41C1883.3333333333333,37.458333333333336,1916.6666666666667,-16.625,2000,-16C2083.3333333333335,-15.375,2118.75,38.583333333333336,2200,44C2281.25,49.416666666666664,2296.25,-64.16666666666667,2390,10C2483.75,84.16666666666667,3252.0833333333335,214.58333333333331,2650,400C2047.9166666666665,585.4166666666667,156.25,795.8333333333334,-500,900" transform="matrix(1,0,0,1,0,70)" opacity="0.21"></path><path d="M-10,10C33.75,10.625,114.58333333333334,16.333333333333332,200,13C285.41666666666663,9.666666666666668,316.66666666666663,-12.041666666666666,400,-6C483.33333333333337,0.041666666666666075,516.6666666666666,46.791666666666664,600,42C683.3333333333334,37.208333333333336,716.6666666666666,-30.458333333333332,800,-29C883.3333333333334,-27.541666666666668,916.6666666666666,44.833333333333336,1000,49C1083.3333333333333,53.166666666666664,1116.6666666666667,-9.833333333333334,1200,-9C1283.3333333333333,-8.166666666666666,1316.6666666666667,50.916666666666664,1400,53C1483.3333333333333,55.083333333333336,1516.6666666666667,3.5,1600,1C1683.3333333333333,-1.5,1716.6666666666667,44.541666666666664,1800,41C1883.3333333333333,37.458333333333336,1916.6666666666667,-16.625,2000,-16C2083.3333333333335,-15.375,2118.75,38.583333333333336,2200,44C2281.25,49.416666666666664,2296.25,-64.16666666666667,2390,10C2483.75,84.16666666666667,3252.0833333333335,214.58333333333331,2650,400C2047.9166666666665,585.4166666666667,156.25,795.8333333333334,-500,900" transform="matrix(1,0,0,1,0,105)" opacity="0.37"></path><path d="M-10,10C33.75,10.625,114.58333333333334,16.333333333333332,200,13C285.41666666666663,9.666666666666668,316.66666666666663,-12.041666666666666,400,-6C483.33333333333337,0.041666666666666075,516.6666666666666,46.791666666666664,600,42C683.3333333333334,37.208333333333336,716.6666666666666,-30.458333333333332,800,-29C883.3333333333334,-27.541666666666668,916.6666666666666,44.833333333333336,1000,49C1083.3333333333333,53.166666666666664,1116.6666666666667,-9.833333333333334,1200,-9C1283.3333333333333,-8.166666666666666,1316.6666666666667,50.916666666666664,1400,53C1483.3333333333333,55.083333333333336,1516.6666666666667,3.5,1600,1C1683.3333333333333,-1.5,1716.6666666666667,44.541666666666664,1800,41C1883.3333333333333,37.458333333333336,1916.6666666666667,-16.625,2000,-16C2083.3333333333335,-15.375,2118.75,38.583333333333336,2200,44C2281.25,49.416666666666664,2296.25,-64.16666666666667,2390,10C2483.75,84.16666666666667,3252.0833333333335,214.58333333333331,2650,400C2047.9166666666665,585.4166666666667,156.25,795.8333333333334,-500,900" transform="matrix(1,0,0,1,0,140)" opacity="0.53"></path><path d="M-10,10C33.75,10.625,114.58333333333334,16.333333333333332,200,13C285.41666666666663,9.666666666666668,316.66666666666663,-12.041666666666666,400,-6C483.33333333333337,0.041666666666666075,516.6666666666666,46.791666666666664,600,42C683.3333333333334,37.208333333333336,716.6666666666666,-30.458333333333332,800,-29C883.3333333333334,-27.541666666666668,916.6666666666666,44.833333333333336,1000,49C1083.3333333333333,53.166666666666664,1116.6666666666667,-9.833333333333334,1200,-9C1283.3333333333333,-8.166666666666666,1316.6666666666667,50.916666666666664,1400,53C1483.3333333333333,55.083333333333336,1516.6666666666667,3.5,1600,1C1683.3333333333333,-1.5,1716.6666666666667,44.541666666666664,1800,41C1883.3333333333333,37.458333333333336,1916.6666666666667,-16.625,2000,-16C2083.3333333333335,-15.375,2118.75,38.583333333333336,2200,44C2281.25,49.416666666666664,2296.25,-64.16666666666667,2390,10C2483.75,84.16666666666667,3252.0833333333335,214.58333333333331,2650,400C2047.9166666666665,585.4166666666667,156.25,795.8333333333334,-500,900" transform="matrix(1,0,0,1,0,175)" opacity="0.68"></path><path d="M-10,10C33.75,10.625,114.58333333333334,16.333333333333332,200,13C285.41666666666663,9.666666666666668,316.66666666666663,-12.041666666666666,400,-6C483.33333333333337,0.041666666666666075,516.6666666666666,46.791666666666664,600,42C683.3333333333334,37.208333333333336,716.6666666666666,-30.458333333333332,800,-29C883.3333333333334,-27.541666666666668,916.6666666666666,44.833333333333336,1000,49C1083.3333333333333,53.166666666666664,1116.6666666666667,-9.833333333333334,1200,-9C1283.3333333333333,-8.166666666666666,1316.6666666666667,50.916666666666664,1400,53C1483.3333333333333,55.083333333333336,1516.6666666666667,3.5,1600,1C1683.3333333333333,-1.5,1716.6666666666667,44.541666666666664,1800,41C1883.3333333333333,37.458333333333336,1916.6666666666667,-16.625,2000,-16C2083.3333333333335,-15.375,2118.75,38.583333333333336,2200,44C2281.25,49.416666666666664,2296.25,-64.16666666666667,2390,10C2483.75,84.16666666666667,3252.0833333333335,214.58333333333331,2650,400C2047.9166666666665,585.4166666666667,156.25,795.8333333333334,-500,900" transform="matrix(1,0,0,1,0,210)" opacity="0.84"></path><path d="M-10,10C33.75,10.625,114.58333333333334,16.333333333333332,200,13C285.41666666666663,9.666666666666668,316.66666666666663,-12.041666666666666,400,-6C483.33333333333337,0.041666666666666075,516.6666666666666,46.791666666666664,600,42C683.3333333333334,37.208333333333336,716.6666666666666,-30.458333333333332,800,-29C883.3333333333334,-27.541666666666668,916.6666666666666,44.833333333333336,1000,49C1083.3333333333333,53.166666666666664,1116.6666666666667,-9.833333333333334,1200,-9C1283.3333333333333,-8.166666666666666,1316.6666666666667,50.916666666666664,1400,53C1483.3333333333333,55.083333333333336,1516.6666666666667,3.5,1600,1C1683.3333333333333,-1.5,1716.6666666666667,44.541666666666664,1800,41C1883.3333333333333,37.458333333333336,1916.6666666666667,-16.625,2000,-16C2083.3333333333335,-15.375,2118.75,38.583333333333336,2200,44C2281.25,49.416666666666664,2296.25,-64.16666666666667,2390,10C2483.75,84.16666666666667,3252.0833333333335,214.58333333333331,2650,400C2047.9166666666665,585.4166666666667,156.25,795.8333333333334,-500,900" transform="matrix(1,0,0,1,0,245)" opacity="1"></path></g></svg>