<?xml version="1.0" encoding="UTF-8"?>
<svg version="1.1" xmlns="http://www.w3.org/2000/svg" width="607" height="246">
<path d="M0 0 C200.31 0 400.62 0 607 0 C607 81.18 607 162.36 607 246 C406.69 246 206.38 246 0 246 C0 164.82 0 83.64 0 0 Z " fill="#FDFEFE" transform="translate(0,0)"/>
<path d="M0 0 C0.33 0 0.66 0 1 0 C1.04964866 4.58982793 1.08583672 9.17949754 1.10986328 13.76953125 C1.11988557 15.32912929 1.13350705 16.8887087 1.15087891 18.44824219 C1.1752941 20.69731254 1.1865209 22.94613322 1.1953125 25.1953125 C1.20563507 25.8861795 1.21595764 26.57704651 1.22659302 27.28884888 C1.23013073 42.75076921 -10.41677644 55.38303167 -20.73876953 65.74560547 C-27.38645819 72.22043583 -34.37003628 78.21568696 -41.609375 84.015625 C-44.36538909 86.30329682 -46.85042549 88.75817165 -49.3359375 91.33203125 C-51.09033743 93.09054949 -52.92433565 94.69890935 -54.8125 96.3125 C-67.4021163 107.27372963 -78.620466 119.861398 -84 136 C-84.06937062 138.22818441 -84.08457084 140.45834524 -84.0625 142.6875 C-84.05347656 143.86699219 -84.04445312 145.04648438 -84.03515625 146.26171875 C-84.02355469 147.16535156 -84.01195312 148.06898438 -84 149 C-87.21043882 147.61811547 -89.04936365 146.07578097 -91.25 143.375 C-91.77078125 142.74335938 -92.2915625 142.11171875 -92.828125 141.4609375 C-93.21484375 140.97882813 -93.6015625 140.49671875 -94 140 C-103.44703254 156.5744812 -104.75497672 182.97287859 -100.00390625 201.08203125 C-98.66770946 204.9658406 -96.92116579 208.50910259 -94.890625 212.07421875 C-94.59671875 212.70972656 -94.3028125 213.34523437 -94 214 C-94.33 214.66 -94.66 215.32 -95 216 C-99.88569126 211.3585933 -103.22041975 206.20703982 -106.25 200.25 C-106.57871094 199.61964844 -106.90742187 198.98929688 -107.24609375 198.33984375 C-112.41307682 187.81607007 -113.46683887 177.34393618 -113.3125 165.75 C-113.31733398 163.95755859 -113.31733398 163.95755859 -113.32226562 162.12890625 C-113.22891949 146.29400733 -110.39019141 130.99519125 -107.4375 115.5 C-106.96002674 112.97963886 -106.48402206 110.45902114 -106.01075745 107.93786621 C-105.71955762 106.3879713 -105.42591528 104.83853229 -105.1292572 103.28967285 C-100.3099814 77.73361722 -102.12889698 52.87761777 -117.05078125 30.9921875 C-120.88379438 26.00554906 -125.07523767 21.89877018 -130 18 C-125.67499063 18 -123.59236316 20.58003289 -120.5 23.3125 C-119.87923584 23.85575928 -119.25847168 24.39901855 -118.61889648 24.95874023 C-100.29330786 41.14606938 -87.90044082 58.92519241 -86.11328125 83.98046875 C-86.05720703 84.98013672 -86.05720703 84.98013672 -86 86 C-85.36835937 85.21238281 -84.73671875 84.42476563 -84.0859375 83.61328125 C-74.80463374 72.23733674 -64.33921412 62.54972485 -52.90234375 53.36328125 C-42.73249634 45.08231533 -32.93837798 36.32173225 -23.40332031 27.31982422 C-22.16151371 26.15190381 -20.90595676 24.99864149 -19.6484375 23.84765625 C-13.79986824 18.3074661 -9.04717536 12.034589 -4.25195312 5.5871582 C-3.44661133 4.50567505 -3.44661133 4.50567505 -2.625 3.40234375 C-2.14289063 2.74741943 -1.66078125 2.09249512 -1.1640625 1.41772461 C-0.77992188 0.94987549 -0.39578125 0.48202637 0 0 Z " fill="#49BCD0" transform="translate(144,7)"/>
<path d="M0 0 C0.46161344 16.19066382 0.61358977 31.83090233 -11.05078125 44.34765625 C-17.03784132 50.55614863 -23.31774233 56.30558243 -30.0859375 61.65625 C-33.66203255 64.53246586 -37.10919687 67.54091351 -40.5625 70.5625 C-44.80275521 74.26786185 -49.06663461 77.89983535 -53.5 81.375 C-62.29801123 88.39592949 -69.4575418 95.63825292 -71.59375 107.21875 C-71.83548148 109.8240782 -71.98970231 112.38438773 -72 115 C-76.82513223 110.17486777 -77.16815411 103.08639704 -77.25805664 96.56811523 C-77.2438696 92.37606008 -77.12876648 88.18986301 -77 84 C-76.97921387 83.05334473 -76.95842773 82.10668945 -76.93701172 81.13134766 C-76.87213816 78.25336429 -76.7840914 75.37707952 -76.6875 72.5 C-76.66526367 71.59789795 -76.64302734 70.6957959 -76.62011719 69.76635742 C-76.5843457 68.92564697 -76.54857422 68.08493652 -76.51171875 67.21875 C-76.48553467 66.47560547 -76.45935059 65.73246094 -76.43237305 64.96679688 C-75.89497943 62.52227797 -74.88567413 61.58806815 -73 60 C-71.35 60.66 -69.7 61.32 -68 62 C-67.57291748 61.56244385 -67.14583496 61.1248877 -66.70581055 60.67407227 C-59.25606233 53.06635059 -51.88578523 45.5937445 -43.5078125 39.00390625 C-40.02922617 36.2242882 -36.78129369 33.21425601 -33.49609375 30.2109375 C-31.08597247 28.07615089 -28.60098826 26.10416034 -26.0625 24.125 C-19.31222201 18.69945189 -13.34543518 12.47304469 -7.28540039 6.29931641 C-6.48739014 5.48769043 -5.68937988 4.67606445 -4.8671875 3.83984375 C-4.14644043 3.10113037 -3.42569336 2.36241699 -2.68310547 1.60131836 C-1 0 -1 0 0 0 Z " fill="#50C0D2" transform="translate(138,77)"/>
<path d="M0 0 C3.87490018 1.65266827 6.89380611 4.22442915 10.0625 6.9375 C10.91642334 7.66839844 10.91642334 7.66839844 11.78759766 8.4140625 C29.63699238 23.8653327 41.91516526 41.53033464 43.6875 65.6875 C43.80273423 67.79108958 43.91088922 69.89514197 44 72 C43.34 72 42.68 72 42 72 C41.94465088 72.6612085 41.88930176 73.32241699 41.83227539 74.00366211 C41.58034285 76.9820238 41.32151498 79.95974625 41.0625 82.9375 C40.93198242 84.49887695 40.93198242 84.49887695 40.79882812 86.09179688 C40.71181641 87.08115234 40.62480469 88.07050781 40.53515625 89.08984375 C40.456604 90.00628662 40.37805176 90.92272949 40.29711914 91.86694336 C40 94 40 94 39 95 C38.7898081 96.76619587 38.63156563 98.53871338 38.5 100.3125 C38.10492568 105.59661906 38.10492568 105.59661906 37.47265625 108.02734375 C36.88487789 110.48046831 36.9043541 112.73091157 36.9375 115.25 C36.94652344 116.14203125 36.95554688 117.0340625 36.96484375 117.953125 C36.97644531 118.62859375 36.98804688 119.3040625 37 120 C37.99 120.495 37.99 120.495 39 121 C38.34 121.99 37.68 122.98 37 124 C36.01 123.505 36.01 123.505 35 123 C28.78031395 146.72365965 22.17515343 172.36499639 35.109375 195.07421875 C35.40328125 195.70972656 35.6971875 196.34523437 36 197 C35.67 197.66 35.34 198.32 35 199 C30.11430874 194.3585933 26.77958025 189.20703982 23.75 183.25 C23.42128906 182.61964844 23.09257813 181.98929688 22.75390625 181.33984375 C17.58692318 170.81607007 16.53316113 160.34393618 16.6875 148.75 C16.68266602 146.95755859 16.68266602 146.95755859 16.67773438 145.12890625 C16.77108051 129.29400733 19.60980859 113.99519125 22.5625 98.5 C23.03997326 95.97963886 23.51597794 93.45902114 23.98924255 90.93786621 C24.28044238 89.3879713 24.57408472 87.83853229 24.8707428 86.28967285 C29.6900186 60.73361722 27.87110302 35.87761777 12.94921875 13.9921875 C9.1076975 8.99448025 4.88071005 4.96557692 0 1 C0 0.67 0 0.34 0 0 Z " fill="#609DBE" transform="translate(14,24)"/>
<path d="M0 0 C0.66 0 1.32 0 2 0 C2.29390625 0.804375 2.29390625 0.804375 2.59375 1.625 C4.59220406 6.86232788 6.89092103 11.8845634 9.4375 16.875 C14.71010749 27.24045261 19.53150939 37.81611173 24.40258789 48.37431335 C26.43391709 52.77724244 28.47236055 57.1768163 30.515625 61.57421875 C30.80379593 62.19440887 31.09196686 62.814599 31.38887024 63.45358276 C32.23835287 65.28158335 33.08792563 67.10954205 33.9375 68.9375 C35.45900256 72.21240261 36.98001645 75.48749276 38.49560547 78.76513672 C39.55711911 81.04768391 40.63016906 83.32488326 41.71142578 85.59814453 C42.26169434 86.7632959 42.81196289 87.92844727 43.37890625 89.12890625 C43.88107666 90.18279541 44.38324707 91.23668457 44.90063477 92.32250977 C46 95 46 95 46 98 C42.04 98 38.08 98 34 98 C33.27554688 96.40671875 32.55109375 94.8134375 31.8046875 93.171875 C25.18181112 78.63784493 25.18181112 78.63784493 18.125 64.3125 C16.82289572 61.63595231 15.82337606 58.92229147 14.83984375 56.1171875 C13.74668203 53.36140306 12.40965244 50.76555315 11.0625 48.125 C7.93788467 41.99207016 5.35436506 35.74600177 3.015625 29.27734375 C2.21992431 26.84549362 2.21992431 26.84549362 0 26 C-0.35320312 27.15886719 -0.70640625 28.31773438 -1.0703125 29.51171875 C-3.50485339 36.81106028 -6.75506807 43.78739666 -9.875 50.8125 C-11.10336746 53.58904848 -12.32947214 56.36659055 -13.5546875 59.14453125 C-13.8509906 59.81554871 -14.1472937 60.48656616 -14.45257568 61.17791748 C-16.68858445 66.25565989 -18.84789654 71.36235265 -20.96142578 76.49243164 C-23.99884665 83.82608225 -27.41057526 90.92085677 -31 98 C-35.29 98 -39.58 98 -44 98 C-43.19164123 93.14984739 -42.43901047 90.3268597 -40.41796875 86.04296875 C-39.89783203 84.92986328 -39.37769531 83.81675781 -38.84179688 82.66992188 C-38.02291992 80.94612305 -38.02291992 80.94612305 -37.1875 79.1875 C-36.1179722 76.91039919 -35.04895206 74.63305986 -33.98046875 72.35546875 C-33.4685498 71.26999756 -32.95663086 70.18452637 -32.42919922 69.06616211 C-31.17491106 66.37524907 -29.96063745 63.67241654 -28.76953125 60.953125 C-27.49230714 58.05142837 -26.12437312 55.28991027 -24.5 52.5625 C-22.82835864 49.63048076 -21.44283657 46.74372085 -20.24609375 43.58984375 C-17.87471266 37.55910924 -15.16234672 31.7010606 -12.41870117 25.83203125 C-11.56439442 24.00405353 -10.71450241 22.17407327 -9.86523438 20.34375 C-6.68132296 13.50781417 -3.42120791 6.72047178 0 0 Z " fill="#4A7AD1" transform="translate(455,58)"/>
<path d="M0 0 C1.53625634 0.03956025 3.07197727 0.11067569 4.60546875 0.2109375 C5.39373047 0.23800781 6.18199219 0.26507813 6.99414062 0.29296875 C8.92827032 0.36330074 10.86098179 0.47091292 12.79296875 0.5859375 C11.12689604 4.91983549 7.91768268 7.71888785 4.66796875 10.8984375 C4.12398438 11.44177734 3.58 11.98511719 3.01953125 12.54492188 C-2.42518491 17.93239219 -8.16829684 22.96594778 -14.12866211 27.77514648 C-35.60410593 44.52586979 -35.60410593 44.52586979 -45.58984375 68.65625 C-46.25789514 78.32074799 -45.52132097 88.00551586 -44.20703125 97.5859375 C-48.16703125 97.5859375 -52.12703125 97.5859375 -56.20703125 97.5859375 C-56.20703125 65.9059375 -56.20703125 34.2259375 -56.20703125 1.5859375 C-51.91703125 1.5859375 -47.62703125 1.5859375 -43.20703125 1.5859375 C-42.87703125 14.4559375 -42.54703125 27.3259375 -42.20703125 40.5859375 C-33.97967674 32.41227115 -33.97967674 32.41227115 -26.35546875 23.953125 C-22.60817076 19.82428394 -18.60345641 15.94405136 -14.62402344 12.04003906 C-13.99915039 11.42354492 -13.37427734 10.80705078 -12.73046875 10.171875 C-12.11937256 9.57294434 -11.50827637 8.97401367 -10.87866211 8.35693359 C-9.31644682 6.70185696 -8.0897641 5.01413951 -6.796875 3.1484375 C-4.03322635 0.41396765 -3.63583494 0.1950897 0 0 Z " fill="#5683D4" transform="translate(396.20703125,59.4140625)"/>
<path d="M0 0 C21.45 0 42.9 0 65 0 C65 3.96 65 7.92 65 12 C56.42 12 47.84 12 39 12 C39 40.05 39 68.1 39 97 C34.71 97 30.42 97 26 97 C26 68.62 26 40.24 26 11 C17.42 11 8.84 11 0 11 C0 7.37 0 3.74 0 0 Z " fill="#5C88D5" transform="translate(270,60)"/>
<path d="M0 0 C19.14 0 38.28 0 58 0 C58 3.96 58 7.92 58 12 C50.41 12 42.82 12 35 12 C35 40.05 35 68.1 35 97 C31.04 97 27.08 97 23 97 C23 68.62 23 40.24 23 11 C15.41 11 7.82 11 0 11 C0 7.37 0 3.74 0 0 Z " fill="#4274CE" transform="translate(490,60)"/>
<path d="M0 0 C0.99 0.12761719 1.98 0.25523438 3 0.38671875 C1.43767979 4.06628166 -0.83584082 6.55187668 -3.5625 9.44921875 C-7.78539092 13.99671243 -11.76102453 18.6881833 -15.6640625 23.515625 C-18.17922297 26.60700117 -20.73610824 29.65888431 -23.3125 32.69921875 C-23.7655249 33.23393799 -24.2185498 33.76865723 -24.68530273 34.31958008 C-27.20089079 37.28279419 -29.72746256 40.236331 -32.26171875 43.18359375 C-32.80207764 43.81225342 -33.34243652 44.44091309 -33.89916992 45.08862305 C-34.9410158 46.29952855 -35.98408439 47.50938348 -37.02856445 48.71801758 C-38.36168654 50.26628329 -39.68144837 51.82602569 -41 53.38671875 C-41.53665283 53.91547607 -42.07330566 54.4442334 -42.6262207 54.98901367 C-44.77974378 58.74763285 -44.4806448 62.48526465 -44.51171875 66.74609375 C-44.52966995 67.6504718 -44.54762115 68.55484985 -44.56611633 69.4866333 C-44.62021857 72.36994795 -44.65411474 75.25309707 -44.6875 78.13671875 C-44.72067315 80.09377303 -44.75516281 82.05080547 -44.79101562 84.0078125 C-44.87594504 88.80066182 -44.9427567 93.59346204 -45 98.38671875 C-48.3 98.38671875 -51.6 98.38671875 -55 98.38671875 C-55 66.37671875 -55 34.36671875 -55 1.38671875 C-51.7 1.38671875 -48.4 1.38671875 -45 1.38671875 C-44.67 14.58671875 -44.34 27.78671875 -44 41.38671875 C-38.555 34.45671875 -38.555 34.45671875 -33 27.38671875 C-30.23116679 23.97549244 -27.45834605 20.57115251 -24.64208984 17.19921875 C-22.17308557 14.21000406 -19.85612926 11.29825729 -17.92578125 7.9296875 C-13.20908453 -0.04060912 -8.76938471 -0.80024803 0 0 Z " fill="#5B87D5" transform="translate(240,58.61328125)"/>
<path d="M0 0 C4.29 0 8.58 0 13 0 C13 31.68 13 63.36 13 96 C8.71 96 4.42 96 0 96 C0 64.32 0 32.64 0 0 Z " fill="#608AD5" transform="translate(251,61)"/>
<path d="M0 0 C9.41632931 3.86742097 17.94718181 9.45999806 22.69140625 18.77734375 C25.98443458 29.61092969 23.14210456 39.60618569 18.5 49.4375 C15.5 49.4375 15.5 49.4375 12.3046875 47.99609375 C8.49341845 46.29052584 4.75541485 45.83988835 0.625 45.5 C-7.03999355 44.69236883 -12.94736843 43.21028561 -19.0625 38.4375 C-21.34483436 33.67436743 -21.15954113 28.62946912 -20.5 23.4375 C-19.84 22.7775 -19.18 22.1175 -18.5 21.4375 C-18.08234375 21.87578125 -17.6646875 22.3140625 -17.234375 22.765625 C-11.03679606 28.76800461 -4.03422262 32.9176869 3.40332031 37.22363281 C14.65836593 43.75423186 14.65836593 43.75423186 16.5 47.4375 C17.11139414 39.85621271 15.79708487 34.76230463 11.5 28.4375 C4.84408377 20.6594547 -4.92147259 16.46454204 -14.5 13.4375 C-13.16445565 9.45869078 -11.51381696 7.09051487 -8.5 4.1875 C-7.448125 3.15882813 -7.448125 3.15882813 -6.375 2.109375 C-3.20149254 -0.72033582 -3.20149254 -0.72033582 0 0 Z " fill="#7973AC" transform="translate(88.5,159.5625)"/>
<path d="M0 0 C2.95311939 1.31095495 4.82764609 2.6341028 6.91796875 5.08984375 C7.70892944 6.01035522 7.70892944 6.01035522 8.51586914 6.94946289 C9.06750732 7.60551514 9.61914551 8.26156738 10.1875 8.9375 C10.76556396 9.61482178 11.34362793 10.29214355 11.93920898 10.98999023 C15.9102964 15.65890255 19.80632833 20.38694405 23.65625 25.15625 C25.48301633 27.37272648 27.33404964 29.55222528 29.21875 31.71875 C30.04910767 32.67479126 30.04910767 32.67479126 30.89624023 33.65014648 C31.99046212 34.90597653 33.0888144 36.15822196 34.19165039 37.40649414 C38 41.78023767 38 41.78023767 38 44 C25.07449144 45.36323723 25.07449144 45.36323723 20.5390625 42.3828125 C18.4858024 40.02784887 16.74754687 37.5893759 15 35 C13.53540467 33.19640249 12.05566537 31.40501704 10.5625 29.625 C9.04118962 27.75038704 7.52036778 25.87537752 6 24 C3.64969555 21.13568285 1.29775563 18.27271698 -1.0546875 15.41015625 C-6 9.28313253 -6 9.28313253 -6 7.0625 C-4.56664257 4.1062003 -2.39375574 2.20962069 0 0 Z " fill="#5582D4" transform="translate(370,112)"/>
<path d="M0 0 C3.74889924 1.47511035 5.13736618 3.30629868 7.25 6.6875 C11.43303538 13.19180312 15.81894998 19.53716201 20.25 25.875 C22.83843821 29.57981427 25.42247064 33.28758832 28 37 C28.45310547 37.64614258 28.90621094 38.29228516 29.37304688 38.95800781 C32 42.7691674 32 42.7691674 32 45 C27.44530484 45.82000435 23.53256287 46.04069778 19 45 C14.89701704 41.32683894 12.34418116 36.84361494 9.625 32.125 C8.88066824 30.90617701 8.13199277 29.68999562 7.37890625 28.4765625 C5.91803944 26.11448828 4.47979552 23.74081878 3.05566406 21.35644531 C0.23871486 16.75698954 -2.83171455 12.36253381 -6 8 C-4.44805246 4.67240077 -2.69378051 2.51419515 0 0 Z " fill="#638DD7" transform="translate(210,112)"/>
<path d="M0 0 C1.11761719 0.02707031 1.11761719 0.02707031 2.2578125 0.0546875 C4.08909701 0.10164351 5.91971649 0.17338348 7.75 0.25 C7.42 1.24 7.09 2.23 6.75 3.25 C5.76 3.25 4.77 3.25 3.75 3.25 C4.018125 4.301875 4.28625 5.35375 4.5625 6.4375 C4.75 10.25 4.75 10.25 2.6875 13.1875 C-0.65850377 15.53682179 -2.25485594 15.71455163 -6.25 15.25 C-6.25 16.24 -6.25 17.23 -6.25 18.25 C-5.56292969 18.22679687 -4.87585938 18.20359375 -4.16796875 18.1796875 C-2.81638672 18.15261719 -2.81638672 18.15261719 -1.4375 18.125 C-0.54417969 18.10179687 0.34914063 18.07859375 1.26953125 18.0546875 C3.75 18.25 3.75 18.25 6.75 20.25 C7.28380074 23.75783344 7.28393675 25.52011109 5.1640625 28.41796875 C1.90219103 30.89340195 -0.2571724 30.75146416 -4.3125 30.6875 C-6.15521484 30.68556641 -6.15521484 30.68556641 -8.03515625 30.68359375 C-11.25 30.25 -11.25 30.25 -13.19140625 28.85546875 C-14.25 27.25 -14.25 27.25 -14.125 25.125 C-13.83625 24.50625 -13.5475 23.8875 -13.25 23.25 C-12.26 22.92 -11.27 22.59 -10.25 22.25 C-10.45625 21.30125 -10.6625 20.3525 -10.875 19.375 C-10.99875 18.34375 -11.1225 17.3125 -11.25 16.25 C-10.59 15.59 -9.93 14.93 -9.25 14.25 C-9.745 13.899375 -10.24 13.54875 -10.75 13.1875 C-13.07091376 10.18965306 -12.70113866 7.92355767 -12.25 4.25 C-9.00683394 -0.48485485 -5.29239118 -0.24311338 0 0 Z " fill="#574A72" transform="translate(536.25,189.75)"/>
<path d="M0 0 C2.96620461 0.59652454 4.83794046 1.42280657 7.1171875 3.42578125 C9.40717491 7.35147395 9.58833383 10.94989108 9.1171875 15.42578125 C7.09052512 19.12968146 5.63674234 21.07941136 2.1171875 23.42578125 C-2.14545808 23.9083449 -4.37413994 23.69451392 -8.1953125 21.67578125 C-12.19175502 18.32992239 -12.70500259 16.78158182 -13.3828125 11.61328125 C-13.24633293 7.33424546 -11.73783738 4.76731182 -8.796875 1.71484375 C-5.86824227 -0.25750074 -3.45498493 -0.29664012 0 0 Z " fill="#5A4D74" transform="translate(175.8828125,189.57421875)"/>
<path d="M0 0 C2.87029869 1.79393668 4.49131638 2.98263276 6 6 C6.59194165 11.25136807 6.89620557 15.55450714 4.0625 20.125 C0.05834241 22.57652506 -3.32054178 23.30573593 -8 23 C-11.670261 21.43818681 -12.7727373 20.34089404 -15 17 C-15.59949547 12.40646326 -15.55183406 8.261335 -13.6875 4 C-9.75806065 -0.6571133 -5.70818565 -0.84120631 0 0 Z " fill="#544770" transform="translate(474,190)"/>
<path d="M0 0 C2.87029869 1.79393668 4.49131638 2.98263276 6 6 C6.52467307 10.8596768 6.75563571 14.74929263 4.1875 19 C1.2490151 21.68661476 -0.35004863 22.93981932 -4.375 23.3125 C-8.23295483 22.97991769 -10.00197922 22.39841663 -13 20 C-15.73080204 15.58280792 -15.68544443 11.04291262 -15 6 C-11.1658506 -0.26244401 -6.95765643 -0.90125083 0 0 Z " fill="#544770" transform="translate(513,190)"/>
<path d="M0 0 C2.97 0 5.94 0 9 0 C9.33 3.96 9.66 7.92 10 12 C10.66 11.34 11.32 10.68 12 10 C18.06410256 9.44871795 18.06410256 9.44871795 20.7109375 11.0078125 C22.76224807 14.17801974 22.31157309 17.54484139 22.1875 21.1875 C22.16719727 22.31188477 22.16719727 22.31188477 22.14648438 23.45898438 C22.11118539 25.30629767 22.05737917 27.15324066 22 29 C22.66 29 23.32 29 24 29 C24 29.99 24 30.98 24 32 C20.7 32 17.4 32 14 32 C14 31.01 14 30.02 14 29 C14.66 29 15.32 29 16 29 C15.67 24.38 15.34 19.76 15 15 C11.25724788 15.57125354 11.25724788 15.57125354 10 17 C9.76572222 19.01594582 9.58663876 21.038474 9.4375 23.0625 C9.35371094 24.16722656 9.26992188 25.27195313 9.18359375 26.41015625 C9.12300781 27.26480469 9.06242187 28.11945313 9 29 C9.66 29 10.32 29 11 29 C11 29.99 11 30.98 11 32 C7.37 32 3.74 32 0 32 C0 31.01 0 30.02 0 29 C0.99 29 1.98 29 3 29 C3 20.75 3 12.5 3 4 C2.01 4 1.02 4 0 4 C0 2.68 0 1.36 0 0 Z " fill="#564972" transform="translate(405,180)"/>
<path d="M0 0 C0.46148437 0.35191406 0.92296875 0.70382813 1.3984375 1.06640625 C9.98228432 7.5636658 18.73448956 13.55666744 28.01953125 19.0078125 C31.1218166 21.08142394 33.5606709 23.17741217 36 26 C36 26.99 36 27.98 36 29 C35.01 28.38125 34.02 27.7625 33 27.125 C28.80341904 24.98556657 24.69046725 24.45539455 20.0625 24 C12.39769563 23.21461375 6.55519239 21.7747843 0.4375 17 C-1.86059473 12.20397621 -1.471093 7.22835997 -1 2 C-0.67 1.34 -0.34 0.68 0 0 Z " fill="#6AA9C4" transform="translate(69,181)"/>
<path d="M0 0 C3.3 0 6.6 0 10 0 C10 0.99 10 1.98 10 3 C9.01 3 8.02 3 7 3 C7.99 5.97 8.98 8.94 10 12 C10.639375 10.576875 11.27875 9.15375 11.9375 7.6875 C12.47697266 6.48673828 12.47697266 6.48673828 13.02734375 5.26171875 C14.07846041 2.90510392 14.07846041 2.90510392 15 0 C16.32 0 17.64 0 19 0 C20.32 3.63 21.64 7.26 23 11 C23.99 8.69 24.98 6.38 26 4 C25.34 4 24.68 4 24 4 C24 2.68 24 1.36 24 0 C26.31 0 28.62 0 31 0 C30.00531802 4.09568252 28.758723 8.10427909 27.5 12.125 C27.16162109 13.21748047 27.16162109 13.21748047 26.81640625 14.33203125 C25.12211361 19.75577278 25.12211361 19.75577278 24 22 C22.140625 21.84765625 22.140625 21.84765625 20 21 C18.21060624 17.45987223 17.21971038 13.78981439 16 10 C14.35 13.96 12.7 17.92 11 22 C9.68 22 8.36 22 7 22 C6.34922704 19.95990245 5.70460176 17.91784331 5.0625 15.875 C4.52302734 14.16957031 4.52302734 14.16957031 3.97265625 12.4296875 C3.08101661 9.28567301 2.46648986 6.23105607 2 3 C1.34 3 0.68 3 0 3 C0 2.01 0 1.02 0 0 Z " fill="#554871" transform="translate(221,190)"/>
<path d="M0 0 C3.87490018 1.65266827 6.89380611 4.22442915 10.0625 6.9375 C10.91642334 7.66839844 10.91642334 7.66839844 11.78759766 8.4140625 C20.96602114 16.35933479 29.00753322 24.3088945 35 35 C35.37125 35.64453125 35.7425 36.2890625 36.125 36.953125 C37 38.5625 37 38.5625 38 41 C37 43 37 43 35 44 C33.96854629 45.30915279 32.96457834 46.64082143 32 48 C32 47.34 32 46.68 32 46 C30.02 46 28.04 46 26 46 C25.87625 45.2471875 25.7525 44.494375 25.625 43.71875 C22.28693487 26.52771457 13.6029157 12.05236901 0 1 C0 0.67 0 0.34 0 0 Z " fill="#4EC4CF" transform="translate(14,24)"/>
<path d="M0 0 C1.29550781 -0.03867188 1.29550781 -0.03867188 2.6171875 -0.078125 C5.80156647 0.33852272 7.03002067 0.78333079 9.125 3.25 C9.42061076 6.12038052 9.50443016 8.58754745 9.375 11.4375 C9.35695313 12.18708984 9.33890625 12.93667969 9.3203125 13.70898438 C9.27324109 15.5565371 9.20149766 17.40343159 9.125 19.25 C9.785 19.25 10.445 19.25 11.125 19.25 C11.125 20.57 11.125 21.89 11.125 23.25 C9.145 22.92 7.165 22.59 5.125 22.25 C5.125 21.59 5.125 20.93 5.125 20.25 C4.403125 20.745 3.68125 21.24 2.9375 21.75 C-0.1043284 23.37230848 -1.50108798 23.85557395 -4.875 23.25 C-7.90747414 21.11907223 -8.75137987 19.90930734 -9.4375 16.25 C-8.875 13.25 -8.875 13.25 -6.8125 10.875 C-3.25828737 8.90883982 -0.877247 8.93609827 3.125 9.25 C2.795 7.6 2.465 5.95 2.125 4.25 C0.475 4.25 -1.175 4.25 -2.875 4.25 C-3.205 4.91 -3.535 5.57 -3.875 6.25 C-4.865 6.25 -5.855 6.25 -6.875 6.25 C-6.875 4.6 -6.875 2.95 -6.875 1.25 C-4.43545342 0.03022671 -2.72194151 0.04846187 0 0 Z " fill="#594D74" transform="translate(262.875,189.75)"/>
<path d="M0 0 C0.99 0.33 1.98 0.66 3 1 C3 2.98 3 4.96 3 7 C1.68 7 0.36 7 -1 7 C-1.33 6.01 -1.66 5.02 -2 4 C-3.65 4 -5.3 4 -7 4 C-7.33 5.65 -7.66 7.3 -8 9 C-6.82630859 9.83144531 -6.82630859 9.83144531 -5.62890625 10.6796875 C-4.61699219 11.40414062 -3.60507813 12.12859375 -2.5625 12.875 C-1.04849609 13.95394531 -1.04849609 13.95394531 0.49609375 15.0546875 C3.48866341 17.37964802 3.88013606 18.10102043 4.375 21.8125 C3.87954982 26.0238265 2.15647263 27.30545019 -1 30 C-1.33 30.33 -1.66 30.66 -2 31 C-3.810285 31.09879565 -5.62452727 31.12971514 -7.4375 31.125 C-8.92056641 31.12886719 -8.92056641 31.12886719 -10.43359375 31.1328125 C-13 31 -13 31 -15 30 C-15 27.69 -15 25.38 -15 23 C-13.68 23 -12.36 23 -11 23 C-11 24.32 -11 25.64 -11 27 C-8.66705225 27.04241723 -6.33297433 27.04092937 -4 27 C-2.75593739 25.95562463 -2.75593739 25.95562463 -2.6640625 23.66796875 C-2.74395779 20.87112305 -2.74395779 20.87112305 -4.8984375 19.05078125 C-5.71570313 18.47714844 -6.53296875 17.90351563 -7.375 17.3125 C-11.99441341 14.00558659 -11.99441341 14.00558659 -14 12 C-14.65835411 5.19700748 -14.65835411 5.19700748 -12.625 1.5 C-8.58175777 -0.81042413 -4.55397209 -0.4637601 0 0 Z " fill="#554770" transform="translate(156,182)"/>
<path d="M0 0 C2.43119623 1.87015094 3.64069173 3.28138345 5 6 C5 7.98 5 9.96 5 12 C0.71 12 -3.58 12 -8 12 C-7.01 13.98 -6.02 15.96 -5 18 C-1.7 18 1.6 18 5 18 C4.67 19.32 4.34 20.64 4 22 C0.92805092 23.53597454 -1.60244293 23.2265038 -5 23 C-9.21852374 21.37749087 -11.63393447 19.83889018 -14 16 C-14.87667144 11.14276636 -14.71427993 7.16665722 -12.125 2.9375 C-8.44471757 -0.41805163 -4.84612011 -0.71972081 0 0 Z " fill="#5D5177" transform="translate(575,190)"/>
<path d="M0 0 C2.64 0 5.28 0 8 0 C8 0.99 8 1.98 8 3 C8.66 3 9.32 3 10 3 C10 2.34 10 1.68 10 1 C13.04300316 -0.52150158 15.654085 -0.23899393 19 0 C21.52775351 3.79163027 21.22443035 6.80874031 21.125 11.1875 C21.11597656 11.93708984 21.10695313 12.68667969 21.09765625 13.45898438 C21.07412578 15.30612654 21.03825561 17.15310412 21 19 C21.99 19 22.98 19 24 19 C24 19.99 24 20.98 24 22 C20.37 22 16.74 22 13 22 C13 21.01 13 20.02 13 19 C13.99 19 14.98 19 16 19 C15.67 14.05 15.34 9.1 15 4 C10.4158037 5.45288986 10.4158037 5.45288986 9 7 C8.76572222 9.01594582 8.58663876 11.038474 8.4375 13.0625 C8.35371094 14.16722656 8.26992188 15.27195313 8.18359375 16.41015625 C8.12300781 17.26480469 8.06242187 18.11945313 8 19 C8.99 19 9.98 19 11 19 C11 19.99 11 20.98 11 22 C7.37 22 3.74 22 0 22 C0 21.01 0 20.02 0 19 C0.99 19 1.98 19 3 19 C3 13.72 3 8.44 3 3 C2.01 3 1.02 3 0 3 C0 2.01 0 1.02 0 0 Z " fill="#51436D" transform="translate(432,190)"/>
<path d="M0 0 C2.5625 1.5 2.5625 1.5 4 4 C4.31058001 6.75837161 4.18622842 9.20657373 4 12 C0.04 12 -3.92 12 -8 12 C-6.54711014 16.5841963 -6.54711014 16.5841963 -5 18 C-3.48071962 18.07179964 -1.95832518 18.08392007 -0.4375 18.0625 C0.38878906 18.05347656 1.21507812 18.04445312 2.06640625 18.03515625 C2.70449219 18.02355469 3.34257812 18.01195312 4 18 C4 19.32 4 20.64 4 22 C0.45881592 23.77059204 -3.14309857 23.62187824 -7 23 C-10.2409858 21.61521516 -12.18844087 20.03422133 -14 17 C-15.1798341 11.3596318 -15.03364934 6.73386341 -12.0625 1.75 C-7.93056739 -0.61110435 -4.65114379 -0.91113824 0 0 Z " fill="#5B4F76" transform="translate(311,190)"/>
<path d="M0 0 C2.5625 1.5 2.5625 1.5 4 4 C4.31058001 6.75837161 4.18622842 9.20657373 4 12 C0.04 12 -3.92 12 -8 12 C-6.54711014 16.5841963 -6.54711014 16.5841963 -5 18 C-3.48071962 18.07179964 -1.95832518 18.08392007 -0.4375 18.0625 C0.38878906 18.05347656 1.21507812 18.04445312 2.06640625 18.03515625 C2.70449219 18.02355469 3.34257812 18.01195312 4 18 C4 19.32 4 20.64 4 22 C0.80657621 23.59671189 -2.52545631 23.37418163 -6 23 C-9.74095776 21.33735211 -11.8428632 19.45021039 -14 16 C-14.93464031 10.77380296 -14.83861693 6.37966011 -12.0625 1.8125 C-7.93723026 -0.62898617 -4.68089022 -0.91696543 0 0 Z " fill="#574A72" transform="translate(375,190)"/>
<path d="M0 0 C8.58 0 17.16 0 26 0 C26 1.98 26 3.96 26 6 C25.01 6 24.02 6 23 6 C23 5.01 23 4.02 23 3 C20.69 3 18.38 3 16 3 C16 10.59 16 18.18 16 26 C16.99 26 17.98 26 19 26 C19 26.99 19 27.98 19 29 C15.04 29 11.08 29 7 29 C7 28.01 7 27.02 7 26 C7.99 26 8.98 26 10 26 C10 18.41 10 10.82 10 3 C7.69 3 5.38 3 3 3 C3 3.99 3 4.98 3 6 C2.01 6 1.02 6 0 6 C0 4.02 0 2.04 0 0 Z " fill="#544770" transform="translate(332,183)"/>
<path d="M0 0 C0.66 0.33 1.32 0.66 2 1 C2 2.65 2 4.3 2 6 C1.01 6 0.02 6 -1 6 C-1.33 5.34 -1.66 4.68 -2 4 C-2.66 4 -3.32 4 -4 4 C-4.33 5.98 -4.66 7.96 -5 10 C-3.35 10 -1.7 10 0 10 C0 11.32 0 12.64 0 14 C-1.65 14 -3.3 14 -5 14 C-5 18.95 -5 23.9 -5 29 C-4.01 29 -3.02 29 -2 29 C-2 29.99 -2 30.98 -2 32 C-5.96 32 -9.92 32 -14 32 C-14 31.01 -14 30.02 -14 29 C-13.01 29 -12.02 29 -11 29 C-11 23.72 -11 18.44 -11 13 C-11.99 13 -12.98 13 -14 13 C-14 12.01 -14 11.02 -14 10 C-13.01 10 -12.02 10 -11 10 C-10.896875 8.906875 -10.79375 7.81375 -10.6875 6.6875 C-10 3 -10 3 -8.875 1.0625 C-5.93234995 -0.60500169 -3.30412652 -0.24030011 0 0 Z " fill="#5A4E75" transform="translate(202,180)"/>
<path d="M0 0 C1.32064453 0.02320313 1.32064453 0.02320313 2.66796875 0.046875 C4.8125 0.25 4.8125 0.25 5.8125 1.25 C5.85313832 2.91617115 5.855221 4.58388095 5.8125 6.25 C4.8225 6.25 3.8325 6.25 2.8125 6.25 C2.4825 5.59 2.1525 4.93 1.8125 4.25 C-0.71483235 3.59444881 -0.71483235 3.59444881 -3.1875 3.25 C-3.02746502 5.17409885 -3.02746502 5.17409885 -2.1875 7.25 C-0.15326202 8.78011297 -0.15326202 8.78011297 2.3125 9.9375 C6.78661003 12.22411003 6.78661003 12.22411003 7.8125 13.25 C8.40539825 16.80738947 7.94700073 18.054757 5.875 21.0625 C1.79909893 23.97385791 -1.32569773 23.8873149 -6.1875 23.25 C-7.1775 22.92 -8.1675 22.59 -9.1875 22.25 C-9.1875 20.27 -9.1875 18.29 -9.1875 16.25 C-8.1975 16.25 -7.2075 16.25 -6.1875 16.25 C-5.8575 16.91 -5.5275 17.57 -5.1875 18.25 C-2.86593403 18.65729228 -0.5306213 18.99438677 1.8125 19.25 C0.4092029 15.80420765 -1.04524955 14.40624935 -4.25 12.5625 C-8.15706522 10.28043478 -8.15706522 10.28043478 -9.1875 9.25 C-9.5 6.375 -9.5 6.375 -9.1875 3.25 C-6.23789586 0.32758115 -4.07993145 -0.12052973 0 0 Z " fill="#584B73" transform="translate(594.1875,189.75)"/>
<path d="M0 0 C2.97 0 5.94 0 9 0 C9 9.57 9 19.14 9 29 C9.99 29 10.98 29 12 29 C12 29.99 12 30.98 12 32 C8.04 32 4.08 32 0 32 C0 31.01 0 30.02 0 29 C0.99 29 1.98 29 3 29 C3 20.75 3 12.5 3 4 C2.01 4 1.02 4 0 4 C0 2.68 0 1.36 0 0 Z " fill="#5C4F76" transform="translate(483,180)"/>
<path d="M0 0 C0.99128906 -0.00257813 1.98257812 -0.00515625 3.00390625 -0.0078125 C5.4375 0.125 5.4375 0.125 6.4375 1.125 C6.47830783 3.12458364 6.48004356 5.12545254 6.4375 7.125 C5.1175 7.125 3.7975 7.125 2.4375 7.125 C2.4375 5.805 2.4375 4.485 2.4375 3.125 C-1.35797921 4.09276098 -1.35797921 4.09276098 -4.5625 6.125 C-4.76215405 8.15881744 -4.76215405 8.15881744 -4.75 10.5 C-4.76417969 11.29148438 -4.77835937 12.08296875 -4.79296875 12.8984375 C-4.70757509 15.41231333 -4.70757509 15.41231333 -2.5625 18.125 C-0.35524927 18.48862818 -0.35524927 18.48862818 2.0625 18.3125 C2.87976563 18.28542969 3.69703125 18.25835937 4.5390625 18.23046875 C5.47878906 18.17826172 5.47878906 18.17826172 6.4375 18.125 C6.4375 19.445 6.4375 20.765 6.4375 22.125 C1.8579371 23.65152097 -2.20571319 24.2059323 -6.640625 22.171875 C-9.77573405 19.95435885 -11.31806068 18.26239111 -12.13671875 14.453125 C-12.31622847 9.87253205 -12.07040828 6.97151379 -9.6875 3 C-6.33986963 0.0462085 -4.39175827 -0.01145178 0 0 Z " fill="#554770" transform="translate(395.5625,189.875)"/>
<path d="M0 0 C1.98 0 3.96 0 6 0 C6 1.32 6 2.64 6 4 C7.32 4 8.64 4 10 4 C10 5.32 10 6.64 10 8 C8.68 8 7.36 8 6 8 C6.33 12.62 6.66 17.24 7 22 C7.99 22.33 8.98 22.66 10 23 C9.67 24.32 9.34 25.64 9 27 C5.625 26.75 5.625 26.75 2 26 C-0.70722647 22.52919683 -0.22796917 18.44005302 -0.125 14.25 C-0.11597656 13.55261719 -0.10695312 12.85523438 -0.09765625 12.13671875 C-0.07419888 10.42433042 -0.03833104 8.71211996 0 7 C-0.99 7 -1.98 7 -3 7 C-3 6.01 -3 5.02 -3 4 C-2.01 4 -1.02 4 0 4 C0 2.68 0 1.36 0 0 Z " fill="#5B4D75" transform="translate(208,186)"/>
<path d="M0 0 C2.97 0 5.94 0 9 0 C9 0.66 9 1.32 9 2 C9.99 1.34 10.98 0.68 12 0 C13.32 0 14.64 0 16 0 C16 1.98 16 3.96 16 6 C14.02 6 12.04 6 10 6 C9.67 10.29 9.34 14.58 9 19 C9.66 19 10.32 19 11 19 C11 19.99 11 20.98 11 22 C7.37 22 3.74 22 0 22 C0 21.01 0 20.02 0 19 C0.99 19 1.98 19 3 19 C3 13.72 3 8.44 3 3 C2.01 3 1.02 3 0 3 C0 2.01 0 1.02 0 0 Z " fill="#574A72" transform="translate(277,190)"/>
<path d="M0 0 C2.31 0 4.62 0 7 0 C7.72492332 9.35927791 8.14256667 18.60644064 8 28 C8.66 28 9.32 28 10 28 C10 28.99 10 29.98 10 31 C6.37 31 2.74 31 -1 31 C-1 30.01 -1 29.02 -1 28 C-0.01 28 0.98 28 2 28 C2 19.42 2 10.84 2 2 C1.34 2 0.68 2 0 2 C0 1.34 0 0.68 0 0 Z " fill="#554871" transform="translate(406,181)"/>
<path d="M0 0 C9.55594156 6.74946357 9.55594156 6.74946357 12 11 C11.93473007 14.26349658 11.51780418 16.19740352 9.75 18.9375 C8 20 8 20 5.5625 20 C1.8991287 18.57039169 0.86232782 17.51773032 -1 14 C-1.96644295 3.93288591 -1.96644295 3.93288591 0 0 Z " fill="#6D93BA" transform="translate(69,181)"/>
<path d="M0 0 C0.75410156 0.00451172 1.50820313 0.00902344 2.28515625 0.01367188 C4.14847127 0.02546501 6.01174555 0.04340058 7.875 0.0625 C7.545 1.0525 7.215 2.0425 6.875 3.0625 C5.885 3.0625 4.895 3.0625 3.875 3.0625 C4.1225 4.135 4.37 5.2075 4.625 6.3125 C4.875 10.0625 4.875 10.0625 2.9375 12.5 C2.256875 13.015625 1.57625 13.53125 0.875 14.0625 C-1.47671131 13.46388258 -3.8109378 12.79325648 -6.125 12.0625 C-7.73225635 8.84798731 -7.18248185 5.62637464 -7.125 2.0625 C-8.115 1.7325 -9.105 1.4025 -10.125 1.0625 C-6.93675432 -0.53162284 -3.49603338 -0.03924735 0 0 Z " fill="#5E5278" transform="translate(536.125,189.9375)"/>
<path d="M0 0 C2.64 0 5.28 0 8 0 C8 6.27 8 12.54 8 19 C8.99 19 9.98 19 11 19 C11 19.99 11 20.98 11 22 C7.37 22 3.74 22 0 22 C0 21.01 0 20.02 0 19 C0.99 19 1.98 19 3 19 C3 13.72 3 8.44 3 3 C2.01 3 1.02 3 0 3 C0 2.01 0 1.02 0 0 Z " fill="#4E406B" transform="translate(547,190)"/>
<path d="M0 0 C9.92205323 -0.58365019 9.92205323 -0.58365019 14 3 C16.28998741 6.9256927 16.47114633 10.52410983 16 15 C12.94736842 20.68421053 12.94736842 20.68421053 9 22 C8.01 21.01 7.02 20.02 6 19 C6.66 19 7.32 19 8 19 C9.33808088 14.98575735 9.19932094 11.18573976 9 7 C6.49316923 3.23975384 4.13506066 2.60807914 0 1 C0 0.67 0 0.34 0 0 Z " fill="#564971" transform="translate(169,190)"/>
<path d="M0 0 C0 0.66 0 1.32 0 2 C0.99 2 1.98 2 3 2 C3.125 5.375 3.125 5.375 3 9 C2.34 9.66 1.68 10.32 1 11 C1.33 11.66 1.66 12.32 2 13 C-1.25 13.75 -1.25 13.75 -5 14 C-7.4375 12.4375 -7.4375 12.4375 -9 10 C-9.5625 7 -9.5625 7 -9 4 C-5.82190563 0.64534483 -4.70465908 0 0 0 Z " fill="#5D5177" transform="translate(263,199)"/>
<path d="M0 0 C2.9375 0.375 2.9375 0.375 6 1 C7.71928489 4.43856978 7.38974252 8.23248896 7 12 C5.5 15.0625 5.5 15.0625 4 17 C2.125 16.6875 2.125 16.6875 0 16 C-2.15942819 12.76085771 -2.27232978 11.75140267 -2.25 8 C-2.25515625 7.13375 -2.2603125 6.2675 -2.265625 5.375 C-2 3 -2 3 0 0 Z " fill="#F5F5F6" transform="translate(467,193)"/>
<path d="M0 0 C4.75 0.75 4.75 0.75 7 3 C7.30078125 5.2421875 7.30078125 5.2421875 7.3125 7.875 C7.32925781 8.73867187 7.34601562 9.60234375 7.36328125 10.4921875 C6.93757021 13.43096692 5.94053466 14.79833799 4 17 C2.125 16.6875 2.125 16.6875 0 16 C-2.15942819 12.76085771 -2.27232978 11.75140267 -2.25 8 C-2.25515625 7.13375 -2.2603125 6.2675 -2.265625 5.375 C-2 3 -2 3 0 0 Z " fill="#F5F5F6" transform="translate(506,193)"/>
<path d="M0 0 C3.87499296 1.65270784 6.89351976 4.2246573 10.0625 6.9375 C10.62670654 7.41968994 11.19091309 7.90187988 11.7722168 8.39868164 C15.71688207 11.80973164 19.57010874 15.30552573 23.3125 18.9375 C24.21613281 19.81277344 25.11976562 20.68804687 26.05078125 21.58984375 C28 24 28 24 28 28 C27.34 28 26.68 28 26 28 C26 27.34 26 26.68 26 26 C25.34 26 24.68 26 24 26 C24 26.66 24 27.32 24 28 C23.01 28 22.02 28 21 28 C19.421875 25.69140625 19.421875 25.69140625 17.75 22.5625 C12.89876175 13.90976622 7.67342238 7.26401827 0 1 C0 0.67 0 0.34 0 0 Z " fill="#48CCD2" transform="translate(14,24)"/>
<path d="M0 0 C2.5 0.1875 2.5 0.1875 5 1 C7.48025977 4.72038965 7.41669436 7.69415832 7 12 C6.25 14.4375 6.25 14.4375 5 16 C3.0625 16.9375 3.0625 16.9375 1 17 C-0.609375 15.8828125 -0.609375 15.8828125 -2 14 C-2.36328125 11.15234375 -2.36328125 11.15234375 -2.3125 7.9375 C-2.30863281 6.87402344 -2.30476562 5.81054688 -2.30078125 4.71484375 C-2 2 -2 2 0 0 Z " fill="#F5F5F6" transform="translate(172,193)"/>
<path d="M0 0 C0 2.97 0 5.94 0 9 C-0.70125 8.9175 -1.4025 8.835 -2.125 8.75 C-6.59772186 9.13893234 -9.36374223 11.65593112 -12.75 14.4375 C-14.36930814 16.46163518 -15.1454538 18.56783005 -16 21 C-16.66 21 -17.32 21 -18 21 C-18.66 22.32 -19.32 23.64 -20 25 C-21.32 25 -22.64 25 -24 25 C-24 25.66 -24 26.32 -24 27 C-24.66 27 -25.32 27 -26 27 C-26 27.66 -26 28.32 -26 29 C-28.31 29.66 -30.62 30.32 -33 31 C-28.90060221 26.83729105 -24.65360729 22.85239008 -20.375 18.875 C-14.42942601 13.33376602 -8.62004239 7.69294951 -2.94140625 1.87890625 C-1 0 -1 0 0 0 Z " fill="#59D4D8" transform="translate(138,77)"/>
<path d="M0 0 C0 0.99 0 1.98 0 3 C0.31088368 4.67099977 0.64080332 6.33871537 1 8 C0.01 8 -0.98 8 -2 8 C-4.15028304 8.94978897 -4.15028304 8.94978897 -6 10 C-6 11.32 -6 12.64 -6 14 C-6.99 13.67 -7.98 13.34 -9 13 C-9.33 13.66 -9.66 14.32 -10 15 C-9.34 15 -8.68 15 -8 15 C-9.35082516 19.05247548 -11.29811832 19.14905916 -15 21 C-15.33 21.99 -15.66 22.98 -16 24 C-18.0625 24.6875 -18.0625 24.6875 -20 25 C-19.48810082 20.8946041 -18.48173708 19.00053118 -15.5078125 16.15234375 C-14.80269531 15.46462891 -14.09757812 14.77691406 -13.37109375 14.06835938 C-12.25927734 13.01358398 -12.25927734 13.01358398 -11.125 11.9375 C-9.66713554 10.53215965 -8.21133166 9.1246779 -6.7578125 7.71484375 C-6.1095752 7.09730225 -5.46133789 6.47976074 -4.79345703 5.84350586 C-3.00227987 4.00234349 -1.49344378 2.08684416 0 0 Z " fill="#4ACDD4" transform="translate(134,20)"/>
<path d="M0 0 C6.40308847 0.26679535 10.4195349 2.51607866 15 7 C16.5 9.875 16.5 9.875 17 12 C16.47792969 11.73445312 15.95585938 11.46890625 15.41796875 11.1953125 C9.38799013 8.30176759 3.60493534 6.93827119 -3 6 C-3 5.34 -3 4.68 -3 4 C-2.34 4 -1.68 4 -1 4 C-0.67 2.68 -0.34 1.36 0 0 Z " fill="#5DC5D1" transform="translate(89,198)"/>
<path d="M0 0 C1.21236328 0.04060547 1.21236328 0.04060547 2.44921875 0.08203125 C3.06410156 0.11683594 3.67898438 0.15164062 4.3125 0.1875 C3.3225 0.8475 2.3325 1.5075 1.3125 2.1875 C2.3025 3.6725 2.3025 3.6725 3.3125 5.1875 C3.3125 6.5075 3.3125 7.8275 3.3125 9.1875 C0.6725 9.1875 -1.9675 9.1875 -4.6875 9.1875 C-4.6875 8.5275 -4.6875 7.8675 -4.6875 7.1875 C-6.3375 7.1875 -7.9875 7.1875 -9.6875 7.1875 C-7.45089065 2.19814067 -5.70862614 -0.24820114 0 0 Z " fill="#5E5278" transform="translate(370.6875,189.8125)"/>
<path d="M0 0 C2.31 1.98 4.62 3.96 7 6 C5.125 12.75 5.125 12.75 4 15 C2.35 14.67 0.7 14.34 -1 14 C-1.02694851 12.04174127 -1.04637218 10.08337774 -1.0625 8.125 C-1.07410156 7.03445312 -1.08570312 5.94390625 -1.09765625 4.8203125 C-1 2 -1 2 0 0 Z " fill="#777FB0" transform="translate(69,181)"/>
<path d="M0 0 C3.875 1.875 3.875 1.875 5 3 C6.51928038 3.07179964 8.04167482 3.08392007 9.5625 3.0625 C10.38878906 3.05347656 11.21507812 3.04445312 12.06640625 3.03515625 C13.02353516 3.01775391 13.02353516 3.01775391 14 3 C14 4.32 14 5.64 14 7 C10.56928684 8.71535658 6.75941181 8.4006478 3 8 C0.4375 6.5 0.4375 6.5 -1 5 C-0.67 3.35 -0.34 1.7 0 0 Z " fill="#52456E" transform="translate(301,205)"/>
<path d="M0 0 C0.33 0 0.66 0 1 0 C1 10.89 1 21.78 1 33 C0.67 33 0.34 33 0 33 C-0.33 24.75 -0.66 16.5 -1 8 C-2.65 9.98 -4.3 11.96 -6 14 C-6.66 13.67 -7.32 13.34 -8 13 C-6.42903279 7.97290493 -3.38006951 3.97133531 0 0 Z " fill="#74DCDD" transform="translate(144,7)"/>
<path d="M0 0 C5.36842105 -0.35789474 5.36842105 -0.35789474 7.875 1.0625 C9.58196395 4.00227124 9.18799766 6.67870803 9 10 C5.04 10 1.08 10 -3 10 C-1 8 -1 8 1.625 7.875 C2.40875 7.91625 3.1925 7.9575 4 8 C3.40138258 5.64828869 2.73075648 3.3140622 2 1 C1.34 0.67 0.68 0.34 0 0 Z " fill="#51436D" transform="translate(306,191)"/>
<path d="M0 0 C2.31 0 4.62 0 7 0 C6.09255778 3.78260126 5.01058149 7.51152256 3.9375 11.25 C3.57527344 12.51328125 3.21304688 13.7765625 2.83984375 15.078125 C2.56269531 16.04234375 2.28554687 17.0065625 2 18 C0.68 16.68 -0.64 15.36 -2 14 C-0.85408232 10.56224696 0.55750627 7.3240073 2 4 C1.34 4 0.68 4 0 4 C0 2.68 0 1.36 0 0 Z " fill="#6A5E82" transform="translate(245,190)"/>
<path d="M0 0 C1.32 0.66 2.64 1.32 4 2 C3.34 5.63 2.68 9.26 2 13 C1.34 13 0.68 13 0 13 C0 14.98 0 16.96 0 19 C-0.33 19 -0.66 19 -1 19 C-2.10559488 13.74842433 -2.54318537 8.34899492 -2 3 C-1.34 2.01 -0.68 1.02 0 0 Z " fill="#629FCB" transform="translate(64,137)"/>
<path d="M0 0 C3.09919704 1.54959852 3.32834134 4.06365998 4.5 7.25 C5.13421875 8.95929688 5.13421875 8.95929688 5.78125 10.703125 C6.1834375 11.79109375 6.585625 12.8790625 7 14 C7.66050642 15.66911758 8.32471797 17.33680536 9 19 C5.14518045 16.18558157 2.65994666 13.41133138 0.125 9.375 C-0.49117187 8.41335937 -1.10734375 7.45171875 -1.7421875 6.4609375 C-2.15726563 5.64882812 -2.57234375 4.83671875 -3 4 C-2 2 -2 2 0 0 Z " fill="#827DAE" transform="translate(41,204)"/>
<path d="M0 0 C0.99 0 1.98 0 3 0 C3.33 3.3 3.66 6.6 4 10 C5.32 10.33 6.64 10.66 8 11 C6.02 11.66 4.04 12.32 2 13 C0 11.4375 0 11.4375 -2 9 C-2.375 5.375 -2.375 5.375 -2 2 C-1.34 1.34 -0.68 0.68 0 0 Z " fill="#544770" transform="translate(526,192)"/>
<path d="M0 0 C5.36842105 -0.35789474 5.36842105 -0.35789474 7.875 1.0625 C9.58196395 4.00227124 9.18799766 6.67870803 9 10 C5.04 10 1.08 10 -3 10 C-3 9.67 -3 9.34 -3 9 C-0.69 9 1.62 9 4 9 C3.71848913 7.68528432 3.42446661 6.37324233 3.125 5.0625 C2.88136719 3.96615234 2.88136719 3.96615234 2.6328125 2.84765625 C2.17038477 0.79299706 2.17038477 0.79299706 0 0 Z " fill="#50436C" transform="translate(370,191)"/>
<path d="M0 0 C3.375 -0.1875 3.375 -0.1875 7 0 C9.4294516 3.6441774 9.16179575 5.71241272 9 10 C5.04 10 1.08 10 -3 10 C-3 9.67 -3 9.34 -3 9 C-0.69 9 1.62 9 4 9 C2.87302957 4.03088634 2.87302957 4.03088634 0 0 Z " fill="#4F416C" transform="translate(570,191)"/>
<path d="M0 0 C1.32 0 2.64 0 4 0 C4 1.32 4 2.64 4 4 C6.64 4.33 9.28 4.66 12 5 C12.33 5.99 12.66 6.98 13 8 C11.20841511 8.02696365 9.41671527 8.04637917 7.625 8.0625 C6.62726563 8.07410156 5.62953125 8.08570313 4.6015625 8.09765625 C2 8 2 8 0 7 C0 4.69 0 2.38 0 0 Z " fill="#5C5076" transform="translate(141,205)"/>
<path d="M0 0 C0.66 0 1.32 0 2 0 C1.79503906 0.52207031 1.59007813 1.04414063 1.37890625 1.58203125 C-0.86316049 7.70748632 -1.64787062 13.50382011 -2 20 C-5.09423168 16.90576832 -5.93706005 13.4476188 -6.125 9.125 C-6.08375 8.42375 -6.0425 7.7225 -6 7 C-5.01 6.67 -4.02 6.34 -3 6 C-3 5.01 -3 4.02 -3 3 C-2.01 3 -1.02 3 0 3 C0 2.01 0 1.02 0 0 Z " fill="#5796C3" transform="translate(68,172)"/>
<path d="M0 0 C1.81242052 -0.02687279 3.62495233 -0.04633715 5.4375 -0.0625 C6.44683594 -0.07410156 7.45617187 -0.08570313 8.49609375 -0.09765625 C11 0 11 0 12 1 C12.04080783 2.99958364 12.04254356 5.00045254 12 7 C10.68 7 9.36 7 8 7 C8 5.68 8 4.36 8 3 C5.69 3.66 3.38 4.32 1 5 C0.67 3.35 0.34 1.7 0 0 Z " fill="#665A7E" transform="translate(390,190)"/>
<path d="M0 0 C-0.495 1.051875 -0.99 2.10375 -1.5 3.1875 C-3.72197474 8.9771525 -3.25126037 14.89530352 -3 21 C-3.99 20.67 -4.98 20.34 -6 20 C-5.98839844 19.07316406 -5.97679687 18.14632812 -5.96484375 17.19140625 C-5.95582031 15.99386719 -5.94679687 14.79632813 -5.9375 13.5625 C-5.92589844 12.36753906 -5.91429687 11.17257813 -5.90234375 9.94140625 C-5.66098208 7.11126659 -5.66098208 7.11126659 -7 6 C-7.04063832 4.33382885 -7.042721 2.66611905 -7 1 C-3.375 -1.125 -3.375 -1.125 0 0 Z " fill="#5693BF" transform="translate(63,135)"/>
<path d="M0 0 C0.99 0 1.98 0 3 0 C3.33 0.66 3.66 1.32 4 2 C7.02934491 2.65772428 7.02934491 2.65772428 10 3 C10 3.66 10 4.32 10 5 C10.66 5 11.32 5 12 5 C12 5.66 12 6.32 12 7 C10.56260487 7.02712066 9.12506137 7.04645067 7.6875 7.0625 C6.48673828 7.07990234 6.48673828 7.07990234 5.26171875 7.09765625 C3 7 3 7 0 6 C0 4.02 0 2.04 0 0 Z " fill="#63587C" transform="translate(585,206)"/>
<path d="M0 0 C1.60407328 -0.02708567 3.2082785 -0.04643483 4.8125 -0.0625 C5.70582031 -0.07410156 6.59914062 -0.08570313 7.51953125 -0.09765625 C10 0 10 0 13 1 C13 2.98 13 4.96 13 7 C11.68 7 10.36 7 9 7 C8.67 6.01 8.34 5.02 8 4 C6.12612784 3.19787372 6.12612784 3.19787372 3.9375 2.8125 C3.20402344 2.65394531 2.47054687 2.49539062 1.71484375 2.33203125 C1.14894531 2.22246094 0.58304688 2.11289063 0 2 C0 1.34 0 0.68 0 0 Z " fill="#5E5278" transform="translate(146,182)"/>
<path d="M0 0 C1.2065625 0.0309375 1.2065625 0.0309375 2.4375 0.0625 C2.4375 2.7025 2.4375 5.3425 2.4375 8.0625 C0.7875 8.3925 -0.8625 8.7225 -2.5625 9.0625 C-3.92873674 6.33002652 -3.690926 4.08051098 -3.5625 1.0625 C-2.5625 0.0625 -2.5625 0.0625 0 0 Z " fill="#F4F3F5" transform="translate(532.5625,192.9375)"/>
<path d="M0 0 C3.96 0 7.92 0 12 0 C11.67 1.32 11.34 2.64 11 4 C8.01405576 5.49297212 5.29146376 5.11755228 2 5 C1.34 4.67 0.68 4.34 0 4 C0 2.68 0 1.36 0 0 Z " fill="#5E5277" transform="translate(568,208)"/>
<path d="M0 0 C0 0.99 0 1.98 0 3 C0.31088368 4.67099977 0.64080332 6.33871537 1 8 C0.01 8 -0.98 8 -2 8 C-4.15028304 8.94978897 -4.15028304 8.94978897 -6 10 C-6 11.32 -6 12.64 -6 14 C-10 14 -10 14 -12 13 C-11.38511719 12.39671875 -10.77023438 11.7934375 -10.13671875 11.171875 C-9.32847656 10.37265625 -8.52023438 9.5734375 -7.6875 8.75 C-6.88699219 7.96109375 -6.08648437 7.1721875 -5.26171875 6.359375 C-3.31256349 4.32605933 -1.62578594 2.29398922 0 0 Z " fill="#52D3D7" transform="translate(134,20)"/>
<path d="M0 0 C2.05078125 0.03255208 4.1015625 0.06510417 6.15234375 0.09765625 C6.48234375 1.41765625 6.81234375 2.73765625 7.15234375 4.09765625 C4.19569856 5.57597885 1.41004638 5.15798408 -1.84765625 5.09765625 C-2.41015625 3.16015625 -2.41015625 3.16015625 -2.84765625 1.09765625 C-1.84765625 0.09765625 -1.84765625 0.09765625 0 0 Z " fill="#F1F0F2" transform="translate(530.84765625,211.90234375)"/>
<path d="M0 0 C0.66 0.33 1.32 0.66 2 1 C-3 6 -8 11 -13 16 C-13.66 15.34 -14.32 14.68 -15 14 C-13.25311063 12.22600373 -11.50266549 10.45577447 -9.75 8.6875 C-9.25886719 8.18798828 -8.76773438 7.68847656 -8.26171875 7.17382812 C-5.64859804 4.54328661 -3.04342089 2.12314838 0 0 Z " fill="#E8F2F7" transform="translate(87,155)"/>
<path d="M0 0 C0.66 0.99 1.32 1.98 2 3 C1.01 4.485 1.01 4.485 0 6 C-0.38193326 8.11171939 -0.38193326 8.11171939 -0.5 10.375 C-0.81749863 13.91366655 -1.43571139 16.76713688 -3 20 C-3.33 20 -3.66 20 -4 20 C-4.51778074 12.30520289 -3.7505733 6.78117047 0 0 Z " fill="#EBF5F9" transform="translate(63,134)"/>
<path d="M0 0 C3.36720387 1.39332574 4.9859524 2.9789286 7 6 C5.68 5.67 4.36 5.34 3 5 C3 4.34 3 3.68 3 3 C1.01508358 3.26676204 1.01508358 3.26676204 -1 4 C-2.09658936 7.28976808 -1.79953138 8.71303767 -1 12 C-1.99 12 -2.98 12 -4 12 C-6 9 -6 9 -5.9375 7.125 C-4.59492632 4.08183299 -2.41929099 2.23319168 0 0 Z " fill="#5884D3" transform="translate(370,112)"/>
<path d="M0 0 C4.20953787 1.7296616 7.35143576 4.68206745 10.75 7.625 C11.35199219 8.140625 11.95398438 8.65625 12.57421875 9.1875 C14.05260866 10.45469135 15.52673171 11.72685775 17 13 C15.02 13.99 15.02 13.99 13 15 C12.64808594 14.49210937 12.29617187 13.98421875 11.93359375 13.4609375 C8.77720196 9.06011971 5.56381525 5.49982727 1.3203125 2.12890625 C0.88460938 1.75636719 0.44890625 1.38382813 0 1 C0 0.67 0 0.34 0 0 Z " fill="#6CD5D8" transform="translate(14,24)"/>
<path d="M0 0 C2.97 0 5.94 0 9 0 C9.33 3.96 9.66 7.92 10 12 C10.99 12 11.98 12 13 12 C11.515 14.475 11.515 14.475 10 17 C9.34 16.67 8.68 16.34 8 16 C8 11.05 8 6.1 8 1 C5.69 1 3.38 1 1 1 C1 1.66 1 2.32 1 3 C1.66 3.33 2.32 3.66 3 4 C2.01 4 1.02 4 0 4 C0 2.68 0 1.36 0 0 Z " fill="#7F7692" transform="translate(405,180)"/>
<path d="M0 0 C0.33 0.66 0.66 1.32 1 2 C-1.45614035 7 -1.45614035 7 -3 9 C-3.99 9.33 -4.98 9.66 -6 10 C-6.66 10.66 -7.32 11.32 -8 12 C-9.32 11.67 -10.64 11.34 -12 11 C-8.04 7.37 -4.08 3.74 0 0 Z " fill="#58CAD4" transform="translate(112,42)"/>
<path d="M0 0 C0 1.32 0 2.64 0 4 C-3.21451269 5.60725635 -6.43612536 5.05748185 -10 5 C-10.33 4.34 -10.66 3.68 -11 3 C-7.88866897 -0.11133103 -4.26881718 0 0 0 Z " fill="#5F5479" transform="translate(379,208)"/>
<path d="M0 0 C1.67542976 0.28604898 3.34385343 0.61781233 5 1 C5 2.65 5 4.3 5 6 C2.69 6 0.38 6 -2 6 C-1.125 1.125 -1.125 1.125 0 0 Z " fill="#E7E5E9" transform="translate(569,193)"/>
<path d="M0 0 C1.65 0 3.3 0 5 0 C5 1.98 5 3.96 5 6 C3.35 6.33 1.7 6.66 0 7 C-1.125 2.25 -1.125 2.25 0 0 Z " fill="#F0EEF1" transform="translate(261,202)"/>
<path d="M0 0 C1.65 0.33 3.3 0.66 5 1 C5.33 2.65 5.66 4.3 6 6 C3.69 6 1.38 6 -1 6 C-0.67 4.02 -0.34 2.04 0 0 Z " fill="#E9E7EB" transform="translate(368,193)"/>
<path d="M0 0 C1.65 0.33 3.3 0.66 5 1 C5.33 2.65 5.66 4.3 6 6 C3.69 6 1.38 6 -1 6 C-0.67 4.02 -0.34 2.04 0 0 Z " fill="#E8E7EB" transform="translate(304,193)"/>
<path d="M0 0 C0.53625 0.268125 1.0725 0.53625 1.625 0.8125 C0.635 1.1425 -0.355 1.4725 -1.375 1.8125 C-2.10823796 3.82758358 -2.10823796 3.82758358 -2.375 5.8125 C-3.035 5.8125 -3.695 5.8125 -4.375 5.8125 C-4.375 6.4725 -4.375 7.1325 -4.375 7.8125 C-6.025 7.8125 -7.675 7.8125 -9.375 7.8125 C-7.97480384 3.61191151 -4.76370076 -0.37608164 0 0 Z " fill="#69BBCE" transform="translate(90.375,196.1875)"/>
<path d="M0 0 C0.66 0.33 1.32 0.66 2 1 C2 2.32 2 3.64 2 5 C1.34 5 0.68 5 0 5 C0 5.66 0 6.32 0 7 C-2.31 7.33 -4.62 7.66 -7 8 C-6.02133662 6.85373678 -5.04205413 5.70800212 -4.0625 4.5625 C-3.51722656 3.92441406 -2.97195312 3.28632812 -2.41015625 2.62890625 C-1.63204305 1.73008851 -0.84063472 0.84063472 0 0 Z " fill="#5CBED2" transform="translate(72,77)"/>
<path d="M0 0 C4.83256305 0.41421969 6.82679218 2.46413986 10 6 C9.67 6.66 9.34 7.32 9 8 C7.67968405 7.43457996 6.3688699 6.84693528 5.0625 6.25 C3.96615234 5.76273438 3.96615234 5.76273438 2.84765625 5.265625 C1 4 1 4 0.24609375 1.859375 C0.16488281 1.24578125 0.08367187 0.6321875 0 0 Z " fill="#6BDADD" transform="translate(96,202)"/>
<path d="M0 0 C0.33 0.66 0.66 1.32 1 2 C1.99 2.33 2.98 2.66 4 3 C2.85509764 5.28980473 1.71690524 7.09232751 0 9 C-1.32 9 -2.64 9 -4 9 C-3.67 8.34 -3.34 7.68 -3 7 C-1.99515117 4.66875071 -0.99477753 2.33556463 0 0 Z " fill="#63587C" transform="translate(234,195)"/>
<path d="M0 0 C0.75410156 0.00451172 1.50820313 0.00902344 2.28515625 0.01367188 C4.14847127 0.02546501 6.01174555 0.04340058 7.875 0.0625 C7.545 0.7225 7.215 1.3825 6.875 2.0625 C6.27171875 2.03929687 5.6684375 2.01609375 5.046875 1.9921875 C4.24765625 1.97414062 3.4484375 1.95609375 2.625 1.9375 C1.44164062 1.90269531 1.44164062 1.90269531 0.234375 1.8671875 C-2.33231941 2.0796622 -3.9166067 2.77595895 -6.125 4.0625 C-6.455 3.4025 -6.785 2.7425 -7.125 2.0625 C-8.115 1.7325 -9.105 1.4025 -10.125 1.0625 C-6.93675432 -0.53162284 -3.49603338 -0.03924735 0 0 Z " fill="#6C6284" transform="translate(536.125,189.9375)"/>
<path d="M0 0 C1.32 0.66 2.64 1.32 4 2 C3.625 4.4375 3.625 4.4375 3 7 C2.01 7.495 2.01 7.495 1 8 C0.34 7.67 -0.32 7.34 -1 7 C-1.04254356 5.00045254 -1.04080783 2.99958364 -1 1 C-0.67 0.67 -0.34 0.34 0 0 Z " fill="#7178AC" transform="translate(64,137)"/>
<path d="M0 0 C0 0.99 0 1.98 0 3 C-3.6441774 5.4294516 -5.71241272 5.16179575 -10 5 C-9.67 4.01 -9.34 3.02 -9 2 C-6.94921875 1.77213542 -4.8984375 1.54427083 -2.84765625 1.31640625 C-0.98859771 1.18113386 -0.98859771 1.18113386 0 0 Z " fill="#605479" transform="translate(515,208)"/>
<path d="M0 0 C0.99 0 1.98 0 3 0 C3 1.32 3 2.64 3 4 C0.59454362 5.20272819 -0.94996953 5.10071472 -3.625 5.0625 C-4.85089844 5.04896484 -4.85089844 5.04896484 -6.1015625 5.03515625 C-7.04128906 5.01775391 -7.04128906 5.01775391 -8 5 C-8 4.67 -8 4.34 -8 4 C-7.236875 3.896875 -6.47375 3.79375 -5.6875 3.6875 C-2.757381 2.93793468 -2.02209812 2.11401167 0 0 Z " fill="#6E6485" transform="translate(312,208)"/>
<path d="M0 0 C2.97 0 5.94 0 9 0 C9 0.33 9 0.66 9 1 C8.030625 1.12375 7.06125 1.2475 6.0625 1.375 C4.5465625 1.684375 4.5465625 1.684375 3 2 C1.71553081 4.56893838 1.67022856 6.76576337 1.4375 9.625 C1.35371094 10.62789062 1.26992187 11.63078125 1.18359375 12.6640625 C1.12300781 13.43492188 1.06242188 14.20578125 1 15 C0.67 15 0.34 15 0 15 C0 10.05 0 5.1 0 0 Z " fill="#4D7CD2" transform="translate(185,61)"/>
<path d="M0 0 C0.66 0.99 1.32 1.98 2 3 C1.3203125 5.26171875 1.3203125 5.26171875 0.125 7.6875 C-0.26429688 8.49574219 -0.65359375 9.30398437 -1.0546875 10.13671875 C-1.52261719 11.05904297 -1.52261719 11.05904297 -2 12 C-2.99 12 -3.98 12 -5 12 C-3.68938409 7.76570244 -2.05643741 3.92592596 0 0 Z " fill="#5C87D4" transform="translate(439,92)"/>
<path d="M0 0 C1.67542976 0.28604898 3.34385343 0.61781233 5 1 C4.01 1.33 3.02 1.66 2 2 C2 2.66 2 3.32 2 4 C2.66 4.33 3.32 4.66 4 5 C1.69 5 -0.62 5 -3 5 C-1.125 1.125 -1.125 1.125 0 0 Z " fill="#62CFD4" transform="translate(94,200)"/>
<path d="M0 0 C0 0.66 0 1.32 0 2 C0.99 2.33 1.98 2.66 3 3 C1.35 3 -0.3 3 -2 3 C-2.33 3.66 -2.66 4.32 -3 5 C-3 4.34 -3 3.68 -3 3 C-4.65 3.33 -6.3 3.66 -8 4 C-4.5 0 -4.5 0 0 0 Z " fill="#65597E" transform="translate(263,199)"/>
<path d="M0 0 C2.64 0 5.28 0 8 0 C8 1.65 8 3.3 8 5 C7.01 5 6.02 5 5 5 C4.67 4.34 4.34 3.68 4 3 C1.98330173 1.86649466 1.98330173 1.86649466 0 1 C0 0.67 0 0.34 0 0 Z " fill="#4D3F6A" transform="translate(196,181)"/>
<path d="M0 0 C1.65 0 3.3 0 5 0 C5 1.65 5 3.3 5 5 C3.35 5 1.7 5 0 5 C0 3.35 0 1.7 0 0 Z " fill="#4A3D68" transform="translate(550,181)"/>
<path d="M0 0 C0.66 0.33 1.32 0.66 2 1 C1.67 1.66 1.34 2.32 1 3 C0.34 3 -0.32 3 -1 3 C-1 3.99 -1 4.98 -1 6 C-1.99 6 -2.98 6 -4 6 C-4 6.66 -4 7.32 -4 8 C-5.32 7.67 -6.64 7.34 -8 7 C-5.36 4.69 -2.72 2.38 0 0 Z " fill="#5BC5D3" transform="translate(96,56)"/>
<path d="M0 0 C0 0.66 0 1.32 0 2 C-2.97 2 -5.94 2 -9 2 C-9 1.34 -9 0.68 -9 0 C-5.93109813 -1.53445094 -3.29905734 -0.54984289 0 0 Z " fill="#6C6183" transform="translate(597,211)"/>
<path d="M0 0 C2.64 0 5.28 0 8 0 C5.6875 2.5 5.6875 2.5 3 5 C2.01 5 1.02 5 0 5 C0 3.35 0 1.7 0 0 Z " fill="#52446E" transform="translate(256,191)"/>
<path d="M0 0 C2.64 0 5.28 0 8 0 C8 1.65 8 3.3 8 5 C7.01 5 6.02 5 5 5 C4.34 4.01 3.68 3.02 3 2 C2.01 1.34 1.02 0.68 0 0 Z " fill="#4E416B" transform="translate(592,191)"/>
<path d="M0 0 C0.99 0.33 1.98 0.66 3 1 C0.525 4.465 0.525 4.465 -2 8 C-2.66 7.01 -3.32 6.02 -4 5 C-2.25 1.125 -2.25 1.125 0 0 Z " fill="#55ACCB" transform="translate(72,116)"/>
<path d="M0 0 C0.66 0.33 1.32 0.66 2 1 C1.67 2.98 1.34 4.96 1 7 C0.01 6.67 -0.98 6.34 -2 6 C-2.6875 3.9375 -2.6875 3.9375 -3 2 C-2.01 1.34 -1.02 0.68 0 0 Z " fill="#7872AA" transform="translate(41,204)"/>
<path d="M0 0 C0.99 0 1.98 0 3 0 C4.4783226 2.95664519 4.06032783 5.74229737 4 9 C3.01 9.495 3.01 9.495 2 10 C0.68373308 6.38026598 0 3.90432869 0 0 Z " fill="#7475AA" transform="translate(33,191)"/>
<path d="M0 0 C0.66 0 1.32 0 2 0 C2 1.98 2 3.96 2 6 C1.34 6 0.68 6 0 6 C0 6.66 0 7.32 0 8 C-0.66 8 -1.32 8 -2 8 C-1.125 2.25 -1.125 2.25 0 0 Z " fill="#4FAECB" transform="translate(68,140)"/>
<path d="M0 0 C0.33 1.32 0.66 2.64 1 4 C0.01 4.33 -0.98 4.66 -2 5 C-2.33 5.66 -2.66 6.32 -3 7 C-5.0625 7.625 -5.0625 7.625 -7 8 C-6.02133662 6.85373678 -5.04205413 5.70800212 -4.0625 4.5625 C-3.51722656 3.92441406 -2.97195312 3.28632813 -2.41015625 2.62890625 C-1.63204305 1.73008851 -0.84063472 0.84063472 0 0 Z " fill="#50B6CC" transform="translate(77,132)"/>
<path d="M0 0 C1.125 3.75 1.125 3.75 0 6 C-0.66 6 -1.32 6 -2 6 C-2 5.34 -2 4.68 -2 4 C-3.32 3.67 -4.64 3.34 -6 3 C-2.25 0 -2.25 0 0 0 Z " fill="#56CAD5" transform="translate(104,110)"/>
<path d="M0 0 C1.32 0 2.64 0 4 0 C4 1.32 4 2.64 4 4 C4.66 4.33 5.32 4.66 6 5 C4.68 5.33 3.36 5.66 2 6 C2.33 4.35 2.66 2.7 3 1 C2.34 1 1.68 1 1 1 C1 2.98 1 4.96 1 7 C0.67 7 0.34 7 0 7 C0 4.69 0 2.38 0 0 Z " fill="#73698A" transform="translate(141,205)"/>
<path d="M0 0 C1.32 0.33 2.64 0.66 4 1 C2.02 3.31 0.04 5.62 -2 8 C-2 4.79604584 -1.25664978 2.90600261 0 0 Z " fill="#54CBD4" transform="translate(122,120)"/>
<path d="M0 0 C3.36720387 1.39332574 4.9859524 2.9789286 7 6 C5.68 5.67 4.36 5.34 3 5 C3 4.34 3 3.68 3 3 C1.02 3.33 -0.96 3.66 -3 4 C-2.01 2.68 -1.02 1.36 0 0 Z " fill="#6B92D6" transform="translate(370,112)"/>
<path d="M0 0 C0.66 0 1.32 0 2 0 C2 1.32 2 2.64 2 4 C-0.75078884 4.91692961 -2.35948913 5.10886083 -5.1875 5.0625 C-7.0746875 5.0315625 -7.0746875 5.0315625 -9 5 C-9 4.67 -9 4.34 -9 4 C-7.88625 3.896875 -6.7725 3.79375 -5.625 3.6875 C-4.42875 3.460625 -3.2325 3.23375 -2 3 C-1.34 2.01 -0.68 1.02 0 0 Z " fill="#7A708E" transform="translate(400,208)"/>
<path d="M0 0 C3.96 0 7.92 0 12 0 C12 0.66 12 1.32 12 2 C7.31034294 3.11658501 4.46236469 2.80619523 0 1 C0 0.67 0 0.34 0 0 Z " fill="#493A66" transform="translate(531,191)"/>
<path d="M0 0 C1.45792884 -0.05399736 2.91642712 -0.09279177 4.375 -0.125 C5.18710937 -0.14820313 5.99921875 -0.17140625 6.8359375 -0.1953125 C9 0 9 0 11 2 C8.875 3.1875 8.875 3.1875 6 4 C2.6875 2.625 2.6875 2.625 0 1 C0 0.67 0 0.34 0 0 Z " fill="#62567B" transform="translate(504,190)"/>
<path d="M0 0 C1.45792884 -0.05399736 2.91642712 -0.09279177 4.375 -0.125 C5.18710937 -0.14820313 5.99921875 -0.17140625 6.8359375 -0.1953125 C9 0 9 0 11 2 C8.875 3.1875 8.875 3.1875 6 4 C2.6875 2.625 2.6875 2.625 0 1 C0 0.67 0 0.34 0 0 Z " fill="#61567C" transform="translate(465,190)"/>
<path d="M0 0 C0.99 0.99 1.98 1.98 3 3 C2.34 4.65 1.68 6.3 1 8 C0.01 7.67 -0.98 7.34 -2 7 C-2 6.34 -2 5.68 -2 5 C-1.34 5 -0.68 5 0 5 C0 3.35 0 1.7 0 0 Z " fill="#4F8FC1" transform="translate(54,143)"/>
<path d="M0 0 C0 0.66 0 1.32 0 2 C-2.31 2 -4.62 2 -7 2 C-7.33 1.34 -7.66 0.68 -8 0 C-5.13822943 -1.43088528 -3.06624227 -0.59991697 0 0 Z " fill="#685D80" transform="translate(178,211)"/>
<path d="M0 0 C0.66 0.99 1.32 1.98 2 3 C1 4 1 4 -2.0625 4.0625 C-3.5165625 4.0315625 -3.5165625 4.0315625 -5 4 C-4.67 3.01 -4.34 2.02 -4 1 C-1.9375 0.3125 -1.9375 0.3125 0 0 Z " fill="#63577C" transform="translate(471,209)"/>
<path d="M0 0 C1.32 0 2.64 0 4 0 C3.67 1.32 3.34 2.64 3 4 C1.35 4 -0.3 4 -2 4 C-1.34 2.68 -0.68 1.36 0 0 Z " fill="#645A7E" transform="translate(214,209)"/>
<path d="M0 0 C1.98 0 3.96 0 6 0 C4.25 3.875 4.25 3.875 2 5 C2 4.01 2 3.02 2 2 C1.34 2 0.68 2 0 2 C0 1.34 0 0.68 0 0 Z " fill="#493B66" transform="translate(246,191)"/>
<path d="M0 0 C0.66 0 1.32 0 2 0 C3.06775224 1.96466413 4.06553465 3.96855359 5 6 C4.67 6.66 4.34 7.32 4 8 C1.10067643 5.60490662 0.49831724 3.68754757 0 0 Z " fill="#5683D2" transform="translate(490,134)"/>
<path d="M0 0 C1.65 0 3.3 0 5 0 C4.34 1.65 3.68 3.3 3 5 C2.01 5 1.02 5 0 5 C0 3.35 0 1.7 0 0 Z " fill="#5DD7DB" transform="translate(131,105)"/>
<path d="M0 0 C0.6875 1.8125 0.6875 1.8125 1 4 C-0.4375 5.75 -0.4375 5.75 -2 7 C-2.99 6.67 -3.98 6.34 -5 6 C-3.35 4.02 -1.7 2.04 0 0 Z " fill="#658ED6" transform="translate(214,77)"/>
<path d="M0 0 C0.33 0 0.66 0 1 0 C1.25 5.625 1.25 5.625 -1 9 C-1.66 9 -2.32 9 -3 9 C-2.01 6.03 -1.02 3.06 0 0 Z " fill="#5D88D3" transform="translate(452,63)"/>
</svg>
